<svg xmlns="http://www.w3.org/2000/svg" width="1001" height="536"><path fill="#FFF" fill-rule="evenodd" d="M45.241 241.184c43.979-8.753 62.501-7.113 67.258 16.797.85 4.267 1.27 10.843.841 15.372l2.558-.511c6.43-23.477 25.404-48.554 42.056-51.868 21.776-4.336 60.942 16.278 67.995 51.713 12.062 60.63-27.898 156.472-80.84 167.006-14.088 2.799-45.244-4.319-57.52-21.403-12.595 43.785-20.828 87.145-15.819 112.334-43.974 8.753-65.828 6.005-70.33-16.63-10.449-52.512 56.036-211.331 43.801-272.81m765.636-84.9c12.062 60.63-27.898 156.464-80.84 167.002-14.088 2.803-45.244-4.314-57.52-21.399-12.595 43.781-20.833 87.15-15.82 112.335-43.973 8.752-65.827 6-70.33-16.63-10.452-52.512 56.036-211.332 43.802-272.81 43.974-8.754 62.501-7.114 67.258 16.796.85 4.267 1.27 10.844.84 15.368l2.56-.51c6.425-23.473 25.403-48.55 42.054-51.865 21.777-4.335 60.943 16.278 67.996 51.714zm-394.154 64.68c6.46 32.449-15.252 61.626-47.275 67.992-20.922 4.168-45.253 4.572-63.26-1.163-4.29 20.828-4.564 41.742-1.082 59.247a98.172 98.172 0 006.13 19.639c14.44-12.191 21.287-33.534 18.917-54.362 42.695-8.5 62.411-.88 65.892 16.625 5.44 27.327-18.243 64.441-48.987 70.554-43.974 8.757-94.748-16.647-106.304-74.713-12.234-61.48 28.216-130.342 89.266-142.49 46.966-9.346 80.672 8.361 86.703 38.672zm-268.209 50.71c1.365 2.396 2.898 5.64 3.662 9.483 5.692 28.602-18.965 100.976-49.374 119.906-3.482-19.729 11.972-109.36 45.712-129.389zm451.676-86.157c6.456 32.448-15.252 61.625-47.275 68-20.918 4.16-45.253 4.563-63.26-1.172-4.29 20.832-4.564 41.746-1.083 59.247a98.304 98.304 0 006.13 19.643c14.44-12.195 21.288-33.534 18.918-54.366 42.695-8.495 62.41-.88 65.892 16.625 5.439 27.327-18.244 64.446-48.987 70.559-43.974 8.752-94.748-16.647-106.304-74.718-12.234-61.48 28.212-130.342 89.266-142.49 46.966-9.346 80.672 8.362 86.703 38.672zm334.7-163.564c10.448 52.516-56.037 211.33-43.803 272.81-43.974 8.753-65.828 6.001-70.33-16.63-10.453-52.511 56.036-211.327 43.802-272.81 43.974-8.753 65.827-5.997 70.33 16.63zM733.441 155.272c-33.74 20.03-49.194 109.656-45.713 129.385 30.41-18.927 55.067-91.3 49.375-119.903-.765-3.842-2.297-7.091-3.662-9.482zm266.06 69.925c4.585 23.055-10.543 45.154-34.032 49.833-23.047 4.584-45.06-10.122-49.649-33.178-4.675-23.485 9.942-45.923 32.998-50.512 23.485-4.67 46.008 10.376 50.683 33.857zm-649.019-13.685c-18.368 14.75-30.851 34.543-38.213 55.539 1.79.086 3.498-.254 5.207-.593 21.772-4.331 38.702-30.782 35.131-48.713-.42-2.137-1.27-4.185-2.125-6.233zm183.467-35.447c-18.368 14.75-30.851 34.547-38.213 55.538 1.79.09 3.498-.253 5.207-.593 21.776-4.33 38.702-30.782 35.135-48.712-.43-2.134-1.275-4.186-2.129-6.233z"/></svg>